<svg width="960" height="86" viewBox="0 0 960 86" fill="none" xmlns="http://www.w3.org/2000/svg">
<path d="M69.4092 28H59.5455C58.9622 25.1629 57.9414 22.6705 56.483 20.5227C55.0512 18.375 53.3012 16.572 51.233 15.1136C49.1914 13.6288 46.9243 12.5152 44.4319 11.7727C41.9395 11.0303 39.341 10.6591 36.6364 10.6591C31.7046 10.6591 27.2368 11.9053 23.233 14.3977C19.2557 16.8902 16.0872 20.5625 13.7273 25.4148C11.394 30.267 10.2273 36.2197 10.2273 43.2727C10.2273 50.3258 11.394 56.2784 13.7273 61.1307C16.0872 65.983 19.2557 69.6553 23.233 72.1477C27.2368 74.6402 31.7046 75.8864 36.6364 75.8864C39.341 75.8864 41.9395 75.5152 44.4319 74.7727C46.9243 74.0303 49.1914 72.9299 51.233 71.4716C53.3012 69.9867 55.0512 68.1705 56.483 66.0227C57.9414 63.8485 58.9622 61.3561 59.5455 58.5455H69.4092C68.6667 62.7083 67.3145 66.4337 65.3523 69.7216C63.3902 73.0095 60.9508 75.8068 58.0342 78.1136C55.1175 80.3939 51.8429 82.1307 48.2103 83.3239C44.6042 84.517 40.7463 85.1136 36.6364 85.1136C29.6895 85.1136 23.5114 83.4167 18.1023 80.0227C12.6932 76.6288 8.43757 71.803 5.33529 65.5455C2.23302 59.2879 0.681885 51.8636 0.681885 43.2727C0.681885 34.6818 2.23302 27.2576 5.33529 21C8.43757 14.7424 12.6932 9.91667 18.1023 6.52273C23.5114 3.12879 29.6895 1.43182 36.6364 1.43182C40.7463 1.43182 44.6042 2.02841 48.2103 3.22159C51.8429 4.41477 55.1175 6.16477 58.0342 8.47159C60.9508 10.7519 63.3902 13.536 65.3523 16.8239C67.3145 20.0852 68.6667 23.8106 69.4092 28Z" fill="url(#paint0_linear_33_50)"/>
<path d="M108.894 85.2727C103.378 85.2727 98.5394 83.9602 94.3765 81.3352C90.2401 78.7102 87.0053 75.0379 84.6719 70.3182C82.3651 65.5985 81.2117 60.0833 81.2117 53.7727C81.2117 47.4091 82.3651 41.8542 84.6719 37.108C87.0053 32.3617 90.2401 28.6761 94.3765 26.0511C98.5394 23.4261 103.378 22.1136 108.894 22.1136C114.409 22.1136 119.234 23.4261 123.371 26.0511C127.534 28.6761 130.769 32.3617 133.075 37.108C135.409 41.8542 136.575 47.4091 136.575 53.7727C136.575 60.0833 135.409 65.5985 133.075 70.3182C130.769 75.0379 127.534 78.7102 123.371 81.3352C119.234 83.9602 114.409 85.2727 108.894 85.2727ZM108.894 76.8409C113.083 76.8409 116.53 75.767 119.234 73.6193C121.939 71.4716 123.941 68.6477 125.24 65.1477C126.539 61.6477 127.189 57.8561 127.189 53.7727C127.189 49.6894 126.539 45.8845 125.24 42.358C123.941 38.8314 121.939 35.9811 119.234 33.8068C116.53 31.6326 113.083 30.5455 108.894 30.5455C104.704 30.5455 101.257 31.6326 98.5526 33.8068C95.8481 35.9811 93.8462 38.8314 92.5469 42.358C91.2477 45.8845 90.5981 49.6894 90.5981 53.7727C90.5981 57.8561 91.2477 61.6477 92.5469 65.1477C93.8462 68.6477 95.8481 71.4716 98.5526 73.6193C101.257 75.767 104.704 76.8409 108.894 76.8409Z" fill="url(#paint1_linear_33_50)"/>
<path d="M189.403 59.0227V22.9091H198.79V84H189.403V73.6591H188.767C187.335 76.7614 185.108 79.3996 182.085 81.5739C179.063 83.7216 175.244 84.7955 170.631 84.7955C166.813 84.7955 163.419 83.9602 160.449 82.2898C157.479 80.5928 155.146 78.0474 153.449 74.6534C151.752 71.233 150.903 66.9242 150.903 61.7273V22.9091H160.29V61.0909C160.29 65.5454 161.536 69.0985 164.028 71.75C166.547 74.4015 169.756 75.7273 173.653 75.7273C175.987 75.7273 178.36 75.1307 180.773 73.9375C183.212 72.7443 185.254 70.9148 186.898 68.4489C188.568 65.983 189.403 62.8409 189.403 59.0227Z" fill="url(#paint2_linear_33_50)"/>
<path d="M225.368 47.25V84H215.982V22.9091H225.05V32.4545H225.845C227.277 29.3523 229.451 26.8598 232.368 24.9773C235.285 23.0682 239.05 22.1136 243.663 22.1136C247.8 22.1136 251.419 22.9621 254.521 24.6591C257.624 26.3295 260.037 28.875 261.76 32.2955C263.483 35.6894 264.345 39.9848 264.345 45.1818V84H254.959V45.8182C254.959 41.0189 253.713 37.2803 251.22 34.6023C248.728 31.8977 245.307 30.5455 240.959 30.5455C237.963 30.5455 235.285 31.1951 232.925 32.4943C230.591 33.7936 228.749 35.6894 227.396 38.1818C226.044 40.6742 225.368 43.697 225.368 47.25Z" fill="url(#paint3_linear_33_50)"/>
<path d="M308.065 22.9091V30.8636H276.406V22.9091H308.065ZM285.634 8.27273H295.02V66.5C295.02 69.1515 295.404 71.1402 296.173 72.4659C296.969 73.7652 297.976 74.6402 299.196 75.0909C300.442 75.5152 301.755 75.7273 303.134 75.7273C304.168 75.7273 305.016 75.6742 305.679 75.5682C306.342 75.4356 306.872 75.3295 307.27 75.25L309.179 83.6818C308.543 83.9205 307.654 84.1591 306.514 84.3977C305.374 84.6629 303.929 84.7955 302.179 84.7955C299.528 84.7955 296.929 84.2254 294.384 83.0852C291.865 81.9451 289.77 80.2083 288.099 77.875C286.456 75.5417 285.634 72.5985 285.634 69.0455V8.27273Z" fill="url(#paint4_linear_33_50)"/>
<path d="M344.597 85.2727C339.506 85.2727 335.011 83.9867 331.114 81.4148C327.216 78.8163 324.167 75.1572 321.966 70.4375C319.765 65.6913 318.665 60.0833 318.665 53.6136C318.665 47.197 319.765 41.6288 321.966 36.9091C324.167 32.1894 327.229 28.5436 331.153 25.9716C335.078 23.3996 339.612 22.1136 344.756 22.1136C348.733 22.1136 351.875 22.7765 354.182 24.1023C356.515 25.4015 358.292 26.8864 359.511 28.5568C360.758 30.2008 361.725 31.553 362.415 32.6136H363.21V2.54545H372.597V84H363.528V74.6136H362.415C361.725 75.7273 360.744 77.1326 359.472 78.8295C358.199 80.5 356.383 81.9981 354.023 83.3239C351.663 84.6231 348.521 85.2727 344.597 85.2727ZM345.869 76.8409C349.635 76.8409 352.816 75.8598 355.415 73.8977C358.013 71.9091 359.989 69.1648 361.341 65.6648C362.693 62.1383 363.369 58.0682 363.369 53.4545C363.369 48.8939 362.706 44.9034 361.381 41.483C360.055 38.036 358.093 35.358 355.494 33.4489C352.896 31.5133 349.688 30.5455 345.869 30.5455C341.892 30.5455 338.578 31.5663 335.926 33.608C333.301 35.6231 331.326 38.3674 330 41.8409C328.701 45.2879 328.051 49.1591 328.051 53.4545C328.051 57.803 328.714 61.7538 330.04 65.3068C331.392 68.8333 333.381 71.6439 336.006 73.7386C338.657 75.8068 341.945 76.8409 345.869 76.8409Z" fill="url(#paint5_linear_33_50)"/>
<path d="M415.909 85.2727C410.394 85.2727 405.555 83.9602 401.392 81.3352C397.256 78.7102 394.021 75.0379 391.688 70.3182C389.381 65.5985 388.227 60.0833 388.227 53.7727C388.227 47.4091 389.381 41.8542 391.688 37.108C394.021 32.3617 397.256 28.6761 401.392 26.0511C405.555 23.4261 410.394 22.1136 415.909 22.1136C421.424 22.1136 426.25 23.4261 430.386 26.0511C434.549 28.6761 437.784 32.3617 440.091 37.108C442.424 41.8542 443.591 47.4091 443.591 53.7727C443.591 60.0833 442.424 65.5985 440.091 70.3182C437.784 75.0379 434.549 78.7102 430.386 81.3352C426.25 83.9602 421.424 85.2727 415.909 85.2727ZM415.909 76.8409C420.099 76.8409 423.546 75.767 426.25 73.6193C428.955 71.4716 430.956 68.6477 432.256 65.1477C433.555 61.6477 434.205 57.8561 434.205 53.7727C434.205 49.6894 433.555 45.8845 432.256 42.358C430.956 38.8314 428.955 35.9811 426.25 33.8068C423.546 31.6326 420.099 30.5455 415.909 30.5455C411.72 30.5455 408.273 31.6326 405.568 33.8068C402.864 35.9811 400.862 38.8314 399.563 42.358C398.263 45.8845 397.614 49.6894 397.614 53.7727C397.614 57.8561 398.263 61.6477 399.563 65.1477C400.862 68.6477 402.864 71.4716 405.568 73.6193C408.273 75.767 411.72 76.8409 415.909 76.8409Z" fill="url(#paint6_linear_33_50)"/>
<path d="M469.682 84L451.068 22.9091H460.932L474.136 69.6818H474.773L487.818 22.9091H497.841L510.727 69.5227H511.364L524.568 22.9091H534.432L515.818 84H506.591L493.227 37.0682H492.273L478.909 84H469.682Z" fill="url(#paint7_linear_33_50)"/>
<path d="M556.227 47.25V84H546.841V22.9091H555.909V32.4545H556.705C558.136 29.3523 560.311 26.8598 563.227 24.9773C566.144 23.0682 569.909 22.1136 574.523 22.1136C578.659 22.1136 582.278 22.9621 585.381 24.6591C588.483 26.3295 590.896 28.875 592.619 32.2955C594.343 35.6894 595.205 39.9848 595.205 45.1818V84H585.818V45.8182C585.818 41.0189 584.572 37.2803 582.08 34.6023C579.587 31.8977 576.167 30.5455 571.818 30.5455C568.822 30.5455 566.144 31.1951 563.784 32.4943C561.451 33.7936 559.608 35.6894 558.256 38.1818C556.903 40.6742 556.227 43.697 556.227 47.25Z" fill="url(#paint8_linear_33_50)"/>
<path d="M670.425 22.9091V30.8636H638.766V22.9091H670.425ZM647.993 8.27273H657.379V66.5C657.379 69.1515 657.764 71.1402 658.533 72.4659C659.328 73.7652 660.336 74.6402 661.555 75.0909C662.802 75.5152 664.114 75.7273 665.493 75.7273C666.527 75.7273 667.376 75.6742 668.038 75.5682C668.701 75.4356 669.232 75.3295 669.629 75.25L671.538 83.6818C670.902 83.9205 670.014 84.1591 668.874 84.3977C667.734 84.6629 666.288 84.7955 664.538 84.7955C661.887 84.7955 659.288 84.2254 656.743 83.0852C654.224 81.9451 652.129 80.2083 650.459 77.875C648.815 75.5417 647.993 72.5985 647.993 69.0455V8.27273Z" fill="url(#paint9_linear_33_50)"/>
<path d="M684.544 84V22.9091H693.93V84H684.544ZM689.317 12.7273C687.487 12.7273 685.91 12.1042 684.584 10.858C683.285 9.61174 682.635 8.11364 682.635 6.36364C682.635 4.61364 683.285 3.11553 684.584 1.86932C685.91 0.623106 687.487 0 689.317 0C691.146 0 692.711 0.623106 694.01 1.86932C695.336 3.11553 695.999 4.61364 695.999 6.36364C695.999 8.11364 695.336 9.61174 694.01 10.858C692.711 12.1042 691.146 12.7273 689.317 12.7273Z" fill="url(#paint10_linear_33_50)"/>
<path d="M711.122 84V22.9091H720.19V32.4545H720.986C722.259 29.1932 724.314 26.661 727.151 24.858C729.988 23.0284 733.395 22.1136 737.372 22.1136C741.402 22.1136 744.757 23.0284 747.435 24.858C750.139 26.661 752.247 29.1932 753.759 32.4545H754.395C755.959 29.2992 758.306 26.7936 761.435 24.9375C764.563 23.0549 768.315 22.1136 772.69 22.1136C778.153 22.1136 782.62 23.8239 786.094 27.2443C789.567 30.6383 791.304 35.928 791.304 43.1136V84H781.918V43.1136C781.918 38.6061 780.685 35.3845 778.219 33.4489C775.753 31.5133 772.85 30.5455 769.509 30.5455C765.213 30.5455 761.885 31.8447 759.526 34.4432C757.166 37.0151 755.986 40.2765 755.986 44.2273V84H746.44V42.1591C746.44 38.6856 745.313 35.8883 743.06 33.767C740.806 31.6193 737.903 30.5455 734.349 30.5455C731.91 30.5455 729.63 31.1951 727.509 32.4943C725.414 33.7936 723.717 35.5966 722.418 37.9034C721.145 40.1837 720.509 42.822 720.509 45.8182V84H711.122Z" fill="url(#paint11_linear_33_50)"/>
<path d="M834.08 85.2727C828.193 85.2727 823.116 83.9735 818.847 81.375C814.604 78.75 811.33 75.0909 809.023 70.3977C806.742 65.678 805.602 60.1894 805.602 53.9318C805.602 47.6742 806.742 42.1591 809.023 37.3864C811.33 32.5871 814.538 28.8485 818.648 26.1705C822.784 23.4659 827.61 22.1136 833.125 22.1136C836.307 22.1136 839.449 22.6439 842.551 23.7045C845.653 24.7651 848.477 26.4886 851.023 28.875C853.568 31.2348 855.597 34.3636 857.108 38.2614C858.619 42.1591 859.375 46.9583 859.375 52.6591V56.6364H812.284V48.5227H849.83C849.83 45.0758 849.14 42 847.761 39.2955C846.409 36.5909 844.474 34.4564 841.955 32.892C839.462 31.3276 836.519 30.5455 833.125 30.5455C829.386 30.5455 826.152 31.4735 823.421 33.3295C820.716 35.1591 818.635 37.5455 817.176 40.4886C815.718 43.4318 814.989 46.5871 814.989 49.9545V55.3636C814.989 59.9773 815.784 63.8883 817.375 67.0966C818.992 70.2784 821.233 72.7045 824.097 74.375C826.96 76.0189 830.288 76.8409 834.08 76.8409C836.545 76.8409 838.773 76.4962 840.761 75.8068C842.777 75.0909 844.513 74.0303 845.972 72.625C847.43 71.1932 848.557 69.4167 849.352 67.2955L858.421 69.8409C857.466 72.9167 855.862 75.6212 853.608 77.9545C851.354 80.2614 848.57 82.0644 845.256 83.3636C841.941 84.6364 838.216 85.2727 834.08 85.2727Z" fill="url(#paint12_linear_33_50)"/>
<path d="M873.653 84V22.9091H882.722V32.1364H883.358C884.472 29.1136 886.487 26.661 889.403 24.7784C892.32 22.8958 895.608 21.9545 899.267 21.9545C899.956 21.9545 900.818 21.9678 901.852 21.9943C902.886 22.0208 903.669 22.0606 904.199 22.1136V31.6591C903.881 31.5795 903.152 31.4602 902.011 31.3011C900.898 31.1155 899.718 31.0227 898.472 31.0227C895.502 31.0227 892.85 31.6458 890.517 32.892C888.21 34.1117 886.381 35.8087 885.028 37.983C883.703 40.1307 883.04 42.5833 883.04 45.3409V84H873.653Z" fill="url(#paint13_linear_33_50)"/>
<path d="M958.598 36.5909L950.166 38.9773C949.636 37.572 948.854 36.2064 947.82 34.8807C946.812 33.5284 945.433 32.4148 943.683 31.5398C941.933 30.6648 939.693 30.2273 936.962 30.2273C933.223 30.2273 930.108 31.089 927.615 32.8125C925.149 34.5095 923.916 36.6705 923.916 39.2955C923.916 41.6288 924.765 43.4716 926.462 44.8239C928.159 46.1761 930.81 47.303 934.416 48.2045L943.484 50.4318C948.947 51.7576 953.017 53.786 955.695 56.517C958.373 59.2216 959.712 62.7083 959.712 66.9773C959.712 70.4773 958.704 73.6061 956.689 76.3636C954.7 79.1212 951.916 81.2955 948.337 82.8864C944.757 84.4773 940.594 85.2727 935.848 85.2727C929.617 85.2727 924.46 83.9205 920.376 81.2159C916.293 78.5114 913.708 74.5606 912.621 69.3636L921.53 67.1364C922.378 70.4242 923.983 72.8901 926.342 74.5341C928.729 76.178 931.844 77 935.689 77C940.064 77 943.537 76.072 946.109 74.2159C948.708 72.3333 950.007 70.0795 950.007 67.4545C950.007 65.3333 949.265 63.5568 947.78 62.125C946.295 60.6667 944.015 59.5795 940.939 58.8636L930.757 56.4773C925.162 55.1515 921.053 53.0966 918.428 50.3125C915.829 47.5019 914.53 43.9886 914.53 39.7727C914.53 36.3258 915.498 33.2765 917.433 30.625C919.395 27.9735 922.06 25.892 925.428 24.3807C928.822 22.8693 932.666 22.1136 936.962 22.1136C943.007 22.1136 947.753 23.4394 951.2 26.0909C954.674 28.7424 957.14 32.2424 958.598 36.5909Z" fill="url(#paint14_linear_33_50)"/>
<defs>
<linearGradient id="paint0_linear_33_50" x1="223.852" y1="145.185" x2="302.378" y2="-140.912" gradientUnits="userSpaceOnUse">
<stop stop-color="#EEF1F0"/>
<stop offset="1" stop-color="#71757E"/>
</linearGradient>
<linearGradient id="paint1_linear_33_50" x1="223.852" y1="145.185" x2="302.378" y2="-140.912" gradientUnits="userSpaceOnUse">
<stop stop-color="#EEF1F0"/>
<stop offset="1" stop-color="#71757E"/>
</linearGradient>
<linearGradient id="paint2_linear_33_50" x1="223.852" y1="145.185" x2="302.378" y2="-140.912" gradientUnits="userSpaceOnUse">
<stop stop-color="#EEF1F0"/>
<stop offset="1" stop-color="#71757E"/>
</linearGradient>
<linearGradient id="paint3_linear_33_50" x1="223.852" y1="145.185" x2="302.378" y2="-140.912" gradientUnits="userSpaceOnUse">
<stop stop-color="#EEF1F0"/>
<stop offset="1" stop-color="#71757E"/>
</linearGradient>
<linearGradient id="paint4_linear_33_50" x1="223.852" y1="145.185" x2="302.378" y2="-140.912" gradientUnits="userSpaceOnUse">
<stop stop-color="#EEF1F0"/>
<stop offset="1" stop-color="#71757E"/>
</linearGradient>
<linearGradient id="paint5_linear_33_50" x1="223.852" y1="145.185" x2="302.378" y2="-140.912" gradientUnits="userSpaceOnUse">
<stop stop-color="#EEF1F0"/>
<stop offset="1" stop-color="#71757E"/>
</linearGradient>
<linearGradient id="paint6_linear_33_50" x1="223.852" y1="145.185" x2="302.378" y2="-140.912" gradientUnits="userSpaceOnUse">
<stop stop-color="#EEF1F0"/>
<stop offset="1" stop-color="#71757E"/>
</linearGradient>
<linearGradient id="paint7_linear_33_50" x1="223.852" y1="145.185" x2="302.378" y2="-140.912" gradientUnits="userSpaceOnUse">
<stop stop-color="#EEF1F0"/>
<stop offset="1" stop-color="#71757E"/>
</linearGradient>
<linearGradient id="paint8_linear_33_50" x1="223.852" y1="145.185" x2="302.378" y2="-140.912" gradientUnits="userSpaceOnUse">
<stop stop-color="#EEF1F0"/>
<stop offset="1" stop-color="#71757E"/>
</linearGradient>
<linearGradient id="paint9_linear_33_50" x1="223.852" y1="145.185" x2="302.378" y2="-140.912" gradientUnits="userSpaceOnUse">
<stop stop-color="#EEF1F0"/>
<stop offset="1" stop-color="#71757E"/>
</linearGradient>
<linearGradient id="paint10_linear_33_50" x1="223.852" y1="145.185" x2="302.378" y2="-140.912" gradientUnits="userSpaceOnUse">
<stop stop-color="#EEF1F0"/>
<stop offset="1" stop-color="#71757E"/>
</linearGradient>
<linearGradient id="paint11_linear_33_50" x1="223.852" y1="145.185" x2="302.378" y2="-140.912" gradientUnits="userSpaceOnUse">
<stop stop-color="#EEF1F0"/>
<stop offset="1" stop-color="#71757E"/>
</linearGradient>
<linearGradient id="paint12_linear_33_50" x1="223.852" y1="145.185" x2="302.378" y2="-140.912" gradientUnits="userSpaceOnUse">
<stop stop-color="#EEF1F0"/>
<stop offset="1" stop-color="#71757E"/>
</linearGradient>
<linearGradient id="paint13_linear_33_50" x1="223.852" y1="145.185" x2="302.378" y2="-140.912" gradientUnits="userSpaceOnUse">
<stop stop-color="#EEF1F0"/>
<stop offset="1" stop-color="#71757E"/>
</linearGradient>
<linearGradient id="paint14_linear_33_50" x1="223.852" y1="145.185" x2="302.378" y2="-140.912" gradientUnits="userSpaceOnUse">
<stop stop-color="#EEF1F0"/>
<stop offset="1" stop-color="#71757E"/>
</linearGradient>
</defs>
</svg>
