<svg width="45" height="41" viewBox="0 0 45 41" fill="none" xmlns="http://www.w3.org/2000/svg">
<path fill-rule="evenodd" clip-rule="evenodd" d="M29.03 3.29379C32.4055 2.7312 34.8284 2.32988 36.6838 2.28505C38.5104 2.24092 39.5961 2.55083 40.4152 3.24478C41.2344 3.93873 41.7186 4.95863 41.9753 6.76763C42.2362 8.60517 42.2386 11.0611 42.2386 14.4832V26.5168C42.2386 29.9389 42.2362 32.3948 41.9753 34.2324C41.7186 36.0414 41.2344 37.0613 40.4152 37.7552C39.5961 38.4492 38.5104 38.7591 36.6838 38.715C34.8284 38.6701 32.4055 38.2688 29.03 37.7062L25.5831 37.1317C23.9108 36.853 22.751 36.6578 21.8817 36.399C21.0399 36.1484 20.5946 35.8717 20.2843 35.5053C19.9739 35.139 19.7742 34.6542 19.6654 33.7827C19.553 32.8827 19.5511 31.7066 19.5511 30.0112V28.8861H17.4886L17.4886 30.0792V30.0793C17.4886 31.6904 17.4886 32.9956 17.6187 34.0383C17.7543 35.1242 18.0434 36.0509 18.7105 36.8385C19.3777 37.626 20.2443 38.0635 21.2932 38.3758C22.3003 38.6756 23.5877 38.8901 25.1768 39.155L25.1769 39.155L28.7749 39.7546C32.0481 40.3002 34.6152 40.7281 36.634 40.7768C38.6989 40.8267 40.3795 40.4886 41.7484 39.329C43.1173 38.1693 43.7271 36.5672 44.0174 34.5222C44.3011 32.5229 44.3011 29.9204 44.3011 26.602V14.398C44.3011 11.0796 44.3011 8.47714 44.0174 6.47779C43.7271 4.43283 43.1173 2.83066 41.7484 1.67105C40.3795 0.511437 38.6989 0.173266 36.634 0.223153C34.6152 0.271927 32.0481 0.699791 28.7749 1.24535L25.1769 1.84502C23.5877 2.10985 22.3003 2.32441 21.2932 2.62424C20.2443 2.9365 19.3777 3.37395 18.7105 4.16153C18.0434 4.94911 17.7543 5.87581 17.6187 6.96173C17.4886 8.00444 17.4886 9.30965 17.4886 10.9207V10.9208L17.4886 12.5221H19.5511V10.9888C19.5511 9.2934 19.553 8.11731 19.6654 7.21726C19.7742 6.34578 19.9739 5.86105 20.2843 5.49468C20.5946 5.1283 21.0399 4.85159 21.8817 4.601C22.751 4.34219 23.9108 4.14699 25.5831 3.86827L29.03 3.29379ZM11.0751 10.8317L9.46459 9.54328L0.699219 20.5L9.46459 31.4567L11.0751 30.1683L4.16551 21.5312H20.5824C21.1519 21.5312 21.6136 21.0695 21.6136 20.5C21.6136 19.9305 21.1519 19.4688 20.5824 19.4688H4.16551L11.0751 10.8317Z" fill="white"/>
</svg>
