<svg width="75" height="75" viewBox="0 0 75 75" fill="none" xmlns="http://www.w3.org/2000/svg">
<rect width="75" height="75" rx="16" fill="url(#paint0_linear_12_454)"/>
<path fill-rule="evenodd" clip-rule="evenodd" d="M24.3196 26.5433L25.9301 27.8317L19.0205 36.4688H35.4373C36.0069 36.4688 36.4686 36.9305 36.4686 37.5C36.4686 38.0695 36.0069 38.5312 35.4373 38.5312H19.0205L25.9301 47.1683L24.3196 48.4567L15.5542 37.5L24.3196 26.5433Z" fill="white"/>
<path fill-rule="evenodd" clip-rule="evenodd" d="M51.539 19.2851C49.6836 19.3299 47.2606 19.7312 43.8851 20.2938L40.4382 20.8683C38.7659 21.147 37.6061 21.3422 36.7368 21.601C35.8951 21.8516 35.4498 22.1283 35.1394 22.4947C34.829 22.861 34.6293 23.3458 34.5205 24.2173C34.4081 25.1173 34.4063 26.2934 34.4063 27.9888V29.5221H32.3438L32.3438 27.9208C32.3437 26.3097 32.3437 25.0044 32.4739 23.9617C32.6095 22.8758 32.8985 21.9491 33.5657 21.1615C34.2329 20.3739 35.0994 19.9365 36.1483 19.6242C37.1554 19.3244 38.4429 19.1099 40.032 18.845L43.6301 18.2453C46.9033 17.6998 49.4704 17.2719 51.4892 17.2232C53.554 17.1733 55.2346 17.5114 56.6035 18.671C57.9724 19.8307 58.5823 21.4328 58.8725 23.4778C59.1563 25.4771 59.1563 28.0796 59.1563 31.398V43.602C59.1563 46.9204 59.1563 49.5229 58.8725 51.5222C58.5823 53.5672 57.9724 55.1693 56.6035 56.329C55.2346 57.4886 53.554 57.8267 51.4892 57.7768C49.4704 57.7281 46.9033 57.3002 43.63 56.7546L40.032 56.155C38.4429 55.8901 37.1554 55.6756 36.1483 55.3758C35.0994 55.0635 34.2329 54.626 33.5657 53.8385C32.8985 53.0509 32.6095 52.1242 32.4739 51.0383C32.3437 49.9956 32.3437 48.6903 32.3438 47.0792L32.3438 45.8861H34.4063V47.0112C34.4063 48.7066 34.4081 49.8827 34.5205 50.7827C34.6293 51.6542 34.829 52.139 35.1394 52.5053C35.4498 52.8717 35.8951 53.1484 36.7368 53.399C37.6061 53.6578 38.7659 53.853 40.4383 54.1317L43.8851 54.7062C47.2606 55.2688 49.6836 55.6701 51.539 55.715C53.3656 55.7591 54.4512 55.4492 55.2704 54.7552C56.0896 54.0613 56.5737 53.0414 56.8305 51.2324C57.0913 49.3948 57.0938 46.9389 57.0938 43.5168V31.4832C57.0938 28.0611 57.0913 25.6052 56.8305 23.7676C56.5737 21.9586 56.0896 20.9387 55.2704 20.2448C54.4512 19.5508 53.3656 19.2409 51.539 19.2851Z" fill="white"/>
<rect x="0.5" y="0.5" width="74" height="74" rx="15.5" stroke="white" stroke-opacity="0.14"/>
<defs>
<linearGradient id="paint0_linear_12_454" x1="7.16912" y1="6.61765" x2="39.8438" y2="52.3897" gradientUnits="userSpaceOnUse">
<stop stop-color="#28272F"/>
<stop offset="1" stop-color="#040404"/>
</linearGradient>
</defs>
</svg>
