<svg width="217" height="133" viewBox="0 0 217 133" fill="none" xmlns="http://www.w3.org/2000/svg">
<g filter="url(#filter0_f_12_445)">
<mask id="mask0_12_445" style="mask-type:alpha" maskUnits="userSpaceOnUse" x="29" y="29" width="159" height="75">
<path d="M29 29H188V104H29V29Z" fill="white"/>
</mask>
<g mask="url(#mask0_12_445)">
<g style="mix-blend-mode:overlay" filter="url(#filter1_f_12_445)">
<path d="M84.0784 49.0574C84.0784 30.1289 116.609 14.7843 156.737 14.7843C196.866 14.7843 229.396 30.1289 229.396 49.0574C229.396 67.986 196.866 83.3306 156.737 83.3306C116.609 83.3306 84.0784 67.986 84.0784 49.0574Z" fill="#EA245A"/>
</g>
<g style="mix-blend-mode:overlay" filter="url(#filter2_f_12_445)">
<path d="M-8.41192 45.3482C-8.41192 25.6256 25.4833 9.63727 67.2953 9.63727C109.107 9.63727 143.002 25.6256 143.002 45.3482C143.002 65.0708 109.107 81.0591 67.2953 81.0591C25.4833 81.0591 -8.41191 65.0708 -8.41192 45.3482Z" fill="#6A38F5"/>
</g>
<g style="mix-blend-mode:overlay" filter="url(#filter3_f_12_445)">
<path d="M-0.098853 86.2937C-0.0988566 66.834 33.3445 51.0588 74.599 51.0588C115.853 51.0588 149.297 66.834 149.297 86.2937C149.297 105.753 115.854 121.529 74.599 121.529C33.3445 121.529 -0.0988494 105.753 -0.098853 86.2937Z" fill="#1E99FE"/>
</g>
<g style="mix-blend-mode:overlay" filter="url(#filter4_f_12_445)">
<path d="M77.8426 87.3864C77.8426 68.6769 109.997 53.5098 149.661 53.5098C189.325 53.5098 221.479 68.6769 221.479 87.3864C221.479 106.096 189.325 121.263 149.661 121.263C109.997 121.263 77.8426 106.096 77.8426 87.3864Z" fill="#EB8145"/>
</g>
</g>
</g>
<g filter="url(#filter5_d_12_445)">
<path d="M38.4385 51.3113C38.4385 41.4257 46.4524 33.4118 56.338 33.4118H160.662C170.548 33.4118 178.562 41.4257 178.562 51.3113V81.6887C178.562 91.5743 170.548 99.5882 160.662 99.5882H56.3381C46.4524 99.5882 38.4385 91.5743 38.4385 81.6887V51.3113Z" fill="url(#paint0_linear_12_445)"/>
</g>
<g filter="url(#filter6_d_12_445)">
<path fill-rule="evenodd" clip-rule="evenodd" d="M56.338 32.5168H160.662C171.042 32.5168 179.457 40.9314 179.457 51.3113V81.6887C179.457 92.0686 171.042 100.483 160.662 100.483H56.338C45.9581 100.483 37.5435 92.0686 37.5435 81.6887V51.3113C37.5435 40.9314 45.9581 32.5168 56.338 32.5168ZM56.338 33.4118C46.4523 33.4118 38.4384 41.4257 38.4384 51.3113V81.6887C38.4384 91.5743 46.4524 99.5882 56.338 99.5882H160.662C170.548 99.5882 178.562 91.5743 178.562 81.6887V51.3113C178.562 41.4257 170.548 33.4118 160.662 33.4118H56.338Z" fill="white" fill-opacity="0.3" style="mix-blend-mode:overlay"/>
</g>
<path fill-rule="evenodd" clip-rule="evenodd" d="M110.564 52.7944L110.564 79.9729L106.769 79.9729L106.769 52.7944L110.564 52.7944Z" fill="white"/>
<path fill-rule="evenodd" clip-rule="evenodd" d="M122.877 68.2811L94.4548 68.2811L94.4548 64.4862L122.877 64.4862L122.877 68.2811Z" fill="white"/>
<defs>
<filter id="filter0_f_12_445" x="0.360712" y="0.360712" width="216.279" height="132.279" filterUnits="userSpaceOnUse" color-interpolation-filters="sRGB">
<feFlood flood-opacity="0" result="BackgroundImageFix"/>
<feBlend mode="normal" in="SourceGraphic" in2="BackgroundImageFix" result="shape"/>
<feGaussianBlur stdDeviation="14.3196" result="effect1_foregroundBlur_12_445"/>
</filter>
<filter id="filter1_f_12_445" x="21.5043" y="-47.79" width="270.467" height="193.695" filterUnits="userSpaceOnUse" color-interpolation-filters="sRGB">
<feFlood flood-opacity="0" result="BackgroundImageFix"/>
<feBlend mode="normal" in="SourceGraphic" in2="BackgroundImageFix" result="shape"/>
<feGaussianBlur stdDeviation="31.2872" result="effect1_foregroundBlur_12_445"/>
</filter>
<filter id="filter2_f_12_445" x="-73.6115" y="-55.5622" width="281.813" height="201.821" filterUnits="userSpaceOnUse" color-interpolation-filters="sRGB">
<feFlood flood-opacity="0" result="BackgroundImageFix"/>
<feBlend mode="normal" in="SourceGraphic" in2="BackgroundImageFix" result="shape"/>
<feGaussianBlur stdDeviation="32.5997" result="effect1_foregroundBlur_12_445"/>
</filter>
<filter id="filter3_f_12_445" x="-64.4288" y="-13.2713" width="278.056" height="199.13" filterUnits="userSpaceOnUse" color-interpolation-filters="sRGB">
<feFlood flood-opacity="0" result="BackgroundImageFix"/>
<feBlend mode="normal" in="SourceGraphic" in2="BackgroundImageFix" result="shape"/>
<feGaussianBlur stdDeviation="32.1651" result="effect1_foregroundBlur_12_445"/>
</filter>
<filter id="filter4_f_12_445" x="15.9924" y="-8.34058" width="267.338" height="191.454" filterUnits="userSpaceOnUse" color-interpolation-filters="sRGB">
<feFlood flood-opacity="0" result="BackgroundImageFix"/>
<feBlend mode="normal" in="SourceGraphic" in2="BackgroundImageFix" result="shape"/>
<feGaussianBlur stdDeviation="30.9252" result="effect1_foregroundBlur_12_445"/>
</filter>
<filter id="filter5_d_12_445" x="27.6987" y="22.672" width="161.603" height="87.6559" filterUnits="userSpaceOnUse" color-interpolation-filters="sRGB">
<feFlood flood-opacity="0" result="BackgroundImageFix"/>
<feColorMatrix in="SourceAlpha" type="matrix" values="0 0 0 0 0 0 0 0 0 0 0 0 0 0 0 0 0 0 127 0" result="hardAlpha"/>
<feOffset/>
<feGaussianBlur stdDeviation="5.36987"/>
<feColorMatrix type="matrix" values="0 0 0 0 1 0 0 0 0 1 0 0 0 0 1 0 0 0 0.4 0"/>
<feBlend mode="screen" in2="BackgroundImageFix" result="effect1_dropShadow_12_445"/>
<feBlend mode="normal" in="SourceGraphic" in2="effect1_dropShadow_12_445" result="shape"/>
</filter>
<filter id="filter6_d_12_445" x="26.8037" y="21.7771" width="163.393" height="89.4459" filterUnits="userSpaceOnUse" color-interpolation-filters="sRGB">
<feFlood flood-opacity="0" result="BackgroundImageFix"/>
<feColorMatrix in="SourceAlpha" type="matrix" values="0 0 0 0 0 0 0 0 0 0 0 0 0 0 0 0 0 0 127 0" result="hardAlpha"/>
<feOffset/>
<feGaussianBlur stdDeviation="5.36987"/>
<feColorMatrix type="matrix" values="0 0 0 0 1 0 0 0 0 1 0 0 0 0 1 0 0 0 0.4 0"/>
<feBlend mode="screen" in2="BackgroundImageFix" result="effect1_dropShadow_12_445"/>
<feBlend mode="normal" in="SourceGraphic" in2="effect1_dropShadow_12_445" result="shape"/>
</filter>
<linearGradient id="paint0_linear_12_445" x1="51.8326" y1="39.2509" x2="70.2893" y2="93.9965" gradientUnits="userSpaceOnUse">
<stop stop-color="#28272F"/>
<stop offset="1" stop-color="#040404"/>
</linearGradient>
</defs>
</svg>
