<svg width="751" height="67" viewBox="0 0 751 67" fill="none" xmlns="http://www.w3.org/2000/svg">
<path d="M53.962 22.214H46.2497C45.7936 19.9957 44.9954 18.0469 43.8551 16.3676C42.7356 14.6883 41.3673 13.2785 39.7502 12.1382C38.1538 10.9772 36.3812 10.1065 34.4324 9.526C32.4836 8.9455 30.4519 8.65525 28.3372 8.65525C24.4811 8.65525 20.9877 9.62966 17.8572 11.5785C14.7474 13.5273 12.2699 16.3987 10.4248 20.1926C8.60034 23.9866 7.68814 28.6409 7.68814 34.1556C7.68814 39.6703 8.60034 44.3247 10.4248 48.1186C12.2699 51.9126 14.7474 54.784 17.8572 56.7328C20.9877 58.6816 24.4811 59.656 28.3372 59.656C30.4519 59.656 32.4836 59.3658 34.4324 58.7853C36.3812 58.2048 38.1538 57.3444 39.7502 56.2041C41.3673 55.0431 42.7356 53.623 43.8551 51.9437C44.9954 50.2437 45.7936 48.2949 46.2497 46.0973H53.962C53.3815 49.3522 52.3242 52.265 50.79 54.8358C49.2558 57.4066 47.3485 59.5938 45.068 61.3975C42.7874 63.1804 40.227 64.5384 37.3867 65.4713C34.5672 66.4043 31.5507 66.8707 28.3372 66.8707C22.9054 66.8707 18.0749 65.5439 13.8455 62.8902C9.61621 60.2365 6.28872 56.4633 3.86308 51.5705C1.43743 46.6778 0.224609 40.8728 0.224609 34.1556C0.224609 27.4385 1.43743 21.6335 3.86308 16.7407C6.28872 11.848 9.61621 8.07476 13.8455 5.42106C18.0749 2.76736 22.9054 1.44051 28.3372 1.44051C31.5507 1.44051 34.5672 1.90698 37.3867 2.83992C40.227 3.77286 42.7874 5.14118 45.068 6.94486C47.3485 8.72781 49.2558 10.9047 50.79 13.4754C52.3242 16.0255 53.3815 18.9383 53.962 22.214Z" fill="url(#paint0_linear_36_57)"/>
<path d="M84.8345 66.9951C80.5223 66.9951 76.7387 65.9689 73.4838 63.9164C70.2496 61.864 67.7203 58.9926 65.8959 55.3023C64.0922 51.612 63.1903 47.2997 63.1903 42.3655C63.1903 37.3898 64.0922 33.0465 65.8959 29.3354C67.7203 25.6244 70.2496 22.7427 73.4838 20.6902C76.7387 18.6377 80.5223 17.6115 84.8345 17.6115C89.1468 17.6115 92.92 18.6377 96.1542 20.6902C99.4092 22.7427 101.938 25.6244 103.742 29.3354C105.567 33.0465 106.479 37.3898 106.479 42.3655C106.479 47.2997 105.567 51.612 103.742 55.3023C101.938 58.9926 99.4092 61.864 96.1542 63.9164C92.92 65.9689 89.1468 66.9951 84.8345 66.9951ZM84.8345 60.4024C88.1102 60.4024 90.8054 59.5627 92.92 57.8834C95.0347 56.2041 96.6 53.9962 97.6158 51.2595C98.6317 48.5229 99.1396 45.5582 99.1396 42.3655C99.1396 39.1728 98.6317 36.1977 97.6158 33.4404C96.6 30.683 95.0347 28.4543 92.92 26.7543C90.8054 25.0543 88.1102 24.2043 84.8345 24.2043C81.5589 24.2043 78.8637 25.0543 76.7491 26.7543C74.6344 28.4543 73.0691 30.683 72.0533 33.4404C71.0374 36.1977 70.5295 39.1728 70.5295 42.3655C70.5295 45.5582 71.0374 48.5229 72.0533 51.2595C73.0691 53.9962 74.6344 56.2041 76.7491 57.8834C78.8637 59.5627 81.5589 60.4024 84.8345 60.4024Z" fill="url(#paint1_linear_36_57)"/>
<path d="M147.785 46.4704V18.2334H155.124V66H147.785V57.9145H147.287C146.168 60.3402 144.426 62.403 142.063 64.103C139.699 65.7823 136.714 66.622 133.106 66.622C130.121 66.622 127.467 65.9689 125.145 64.6628C122.823 63.3359 120.999 61.3457 119.672 58.692C118.345 56.0175 117.682 52.6486 117.682 48.5851V18.2334H125.021V48.0875C125.021 51.5705 125.995 54.3486 127.944 56.4218C129.914 58.495 132.422 59.5316 135.47 59.5316C137.294 59.5316 139.15 59.0651 141.036 58.1322C142.944 57.1993 144.54 55.7688 145.826 53.8407C147.132 51.9126 147.785 49.4559 147.785 46.4704Z" fill="url(#paint2_linear_36_57)"/>
<path d="M175.905 37.2654V66H168.566V18.2334H175.656V25.697H176.278C177.398 23.2713 179.098 21.3225 181.378 19.8505C183.659 18.3578 186.603 17.6115 190.21 17.6115C193.444 17.6115 196.274 18.2749 198.7 19.6018C201.126 20.9079 203.012 22.8981 204.36 25.5726C205.707 28.2263 206.381 31.5849 206.381 35.6483V66H199.042V36.1459C199.042 32.3934 198.068 29.4702 196.119 27.3763C194.17 25.2616 191.496 24.2043 188.096 24.2043C185.753 24.2043 183.659 24.7122 181.814 25.7281C179.989 26.7439 178.548 28.2263 177.491 30.1751C176.434 32.1239 175.905 34.4873 175.905 37.2654Z" fill="url(#paint3_linear_36_57)"/>
<path d="M240.566 18.2334V24.453H215.812V18.2334H240.566ZM223.026 6.78937H230.365V52.3169C230.365 54.3901 230.666 55.945 231.267 56.9816C231.889 57.9974 232.677 58.6816 233.631 59.034C234.605 59.3658 235.631 59.5316 236.709 59.5316C237.518 59.5316 238.181 59.4901 238.7 59.4072C239.218 59.3036 239.633 59.2206 239.944 59.1584L241.436 65.7512C240.939 65.9378 240.244 66.1244 239.353 66.311C238.461 66.5183 237.331 66.622 235.963 66.622C233.89 66.622 231.858 66.1762 229.868 65.2847C227.898 64.3933 226.261 63.0353 224.954 61.2109C223.669 59.3865 223.026 57.0852 223.026 54.3071V6.78937Z" fill="url(#paint4_linear_36_57)"/>
<path d="M269.129 66.9951C265.149 66.9951 261.635 65.9896 258.587 63.9786C255.539 61.9469 253.155 59.0859 251.434 55.3956C249.714 51.6845 248.853 47.2997 248.853 42.2411C248.853 37.224 249.714 32.8702 251.434 29.1799C253.155 25.4896 255.55 22.639 258.618 20.628C261.686 18.617 265.232 17.6115 269.254 17.6115C272.363 17.6115 274.82 18.1298 276.624 19.1664C278.448 20.1823 279.837 21.3432 280.791 22.6494C281.765 23.9347 282.522 24.9921 283.061 25.8214H283.683V2.31125H291.022V66H283.932V58.6609H283.061C282.522 59.5316 281.755 60.6304 280.76 61.9573C279.765 63.2634 278.345 64.4347 276.499 65.4713C274.654 66.4872 272.198 66.9951 269.129 66.9951ZM270.124 60.4024C273.068 60.4024 275.556 59.6353 277.588 58.1011C279.62 56.5462 281.164 54.4004 282.221 51.6638C283.279 48.9065 283.807 45.7241 283.807 42.1167C283.807 38.5508 283.289 35.4306 282.253 32.7562C281.216 30.0611 279.682 27.9671 277.65 26.4744C275.618 24.961 273.11 24.2043 270.124 24.2043C267.015 24.2043 264.423 25.0024 262.35 26.5988C260.297 28.1744 258.753 30.3202 257.716 33.0361C256.7 35.7313 256.192 38.7581 256.192 42.1167C256.192 45.5168 256.711 48.6058 257.747 51.3839C258.805 54.1413 260.36 56.3389 262.412 57.9767C264.485 59.5938 267.056 60.4024 270.124 60.4024Z" fill="url(#paint5_linear_36_57)"/>
<path d="M324.888 66.9951C320.576 66.9951 316.792 65.9689 313.537 63.9164C310.303 61.864 307.774 58.9926 305.949 55.3023C304.146 51.612 303.244 47.2997 303.244 42.3655C303.244 37.3898 304.146 33.0465 305.949 29.3354C307.774 25.6244 310.303 22.7427 313.537 20.6902C316.792 18.6377 320.576 17.6115 324.888 17.6115C329.2 17.6115 332.973 18.6377 336.208 20.6902C339.463 22.7427 341.992 25.6244 343.796 29.3354C345.62 33.0465 346.532 37.3898 346.532 42.3655C346.532 47.2997 345.62 51.612 343.796 55.3023C341.992 58.9926 339.463 61.864 336.208 63.9164C332.973 65.9689 329.2 66.9951 324.888 66.9951ZM324.888 60.4024C328.164 60.4024 330.859 59.5627 332.973 57.8834C335.088 56.2041 336.653 53.9962 337.669 51.2595C338.685 48.5229 339.193 45.5582 339.193 42.3655C339.193 39.1728 338.685 36.1977 337.669 33.4404C336.653 30.683 335.088 28.4543 332.973 26.7543C330.859 25.0543 328.164 24.2043 324.888 24.2043C321.612 24.2043 318.917 25.0543 316.802 26.7543C314.688 28.4543 313.123 30.683 312.107 33.4404C311.091 36.1977 310.583 39.1728 310.583 42.3655C310.583 45.5582 311.091 48.5229 312.107 51.2595C313.123 53.9962 314.688 56.2041 316.802 57.8834C318.917 59.5627 321.612 60.4024 324.888 60.4024Z" fill="url(#paint6_linear_36_57)"/>
<path d="M366.932 66L352.379 18.2334H360.091L370.415 54.8047H370.913L381.113 18.2334H388.95L399.026 54.6803H399.523L409.848 18.2334H417.56L403.006 66H395.791L385.342 29.3043H384.596L374.147 66H366.932Z" fill="url(#paint7_linear_36_57)"/>
<path d="M434.602 37.2654V66H427.263V18.2334H434.353V25.697H434.975C436.094 23.2713 437.794 21.3225 440.075 19.8505C442.356 18.3578 445.299 17.6115 448.907 17.6115C452.141 17.6115 454.971 18.2749 457.397 19.6018C459.822 20.9079 461.709 22.8981 463.056 25.5726C464.404 28.2263 465.078 31.5849 465.078 35.6483V66H457.739V36.1459C457.739 32.3934 456.764 29.4702 454.815 27.3763C452.867 25.2616 450.192 24.2043 446.792 24.2043C444.449 24.2043 442.356 24.7122 440.51 25.7281C438.686 26.7439 437.245 28.2263 436.188 30.1751C435.13 32.1239 434.602 34.4873 434.602 37.2654Z" fill="url(#paint8_linear_36_57)"/>
<path d="M523.892 18.2334V24.453H499.138V18.2334H523.892ZM506.353 6.78937H513.692V52.3169C513.692 54.3901 513.992 55.945 514.594 56.9816C515.216 57.9974 516.003 58.6816 516.957 59.034C517.931 59.3658 518.958 59.5316 520.036 59.5316C520.844 59.5316 521.508 59.4901 522.026 59.4072C522.544 59.3036 522.959 59.2206 523.27 59.1584L524.763 65.7512C524.265 65.9378 523.571 66.1244 522.679 66.311C521.788 66.5183 520.658 66.622 519.289 66.622C517.216 66.622 515.184 66.1762 513.194 65.2847C511.225 64.3933 509.587 63.0353 508.281 61.2109C506.995 59.3865 506.353 57.0852 506.353 54.3071V6.78937Z" fill="url(#paint9_linear_36_57)"/>
<path d="M534.932 66V18.2334H542.271V66H534.932ZM538.663 10.2724C537.233 10.2724 535.999 9.78515 534.963 8.81074C533.947 7.83634 533.439 6.66498 533.439 5.29667C533.439 3.92835 533.947 2.757 534.963 1.78259C535.999 0.808186 537.233 0.320984 538.663 0.320984C540.094 0.320984 541.317 0.808186 542.333 1.78259C543.37 2.757 543.888 3.92835 543.888 5.29667C543.888 6.66498 543.37 7.83634 542.333 8.81074C541.317 9.78515 540.094 10.2724 538.663 10.2724Z" fill="url(#paint10_linear_36_57)"/>
<path d="M555.713 66V18.2334H562.803V25.697H563.425C564.42 23.1469 566.027 21.167 568.245 19.7572C570.464 18.3267 573.128 17.6115 576.238 17.6115C579.389 17.6115 582.012 18.3267 584.105 19.7572C586.22 21.167 587.868 23.1469 589.05 25.697H589.548C590.771 23.2299 592.606 21.2707 595.052 19.8194C597.498 18.3475 600.432 17.6115 603.853 17.6115C608.124 17.6115 611.617 18.9487 614.333 21.6231C617.049 24.2768 618.407 28.4129 618.407 34.0312V66H611.067V34.0312C611.067 30.5068 610.103 27.9879 608.175 26.4744C606.247 24.961 603.977 24.2043 601.365 24.2043C598.006 24.2043 595.404 25.2201 593.559 27.2519C591.714 29.2629 590.792 31.8129 590.792 34.902V66H583.328V33.2849C583.328 30.569 582.447 28.3818 580.685 26.7232C578.922 25.0439 576.652 24.2043 573.874 24.2043C571.967 24.2043 570.184 24.7122 568.525 25.7281C566.888 26.7439 565.561 28.1537 564.545 29.9574C563.55 31.7403 563.052 33.8032 563.052 36.1459V66H555.713Z" fill="url(#paint11_linear_36_57)"/>
<path d="M651.852 66.9951C647.25 66.9951 643.28 65.9793 639.942 63.9475C636.625 61.8951 634.064 59.034 632.261 55.3645C630.478 51.6742 629.586 47.3827 629.586 42.4899C629.586 37.5971 630.478 33.2849 632.261 29.5531C634.064 25.8006 636.573 22.8774 639.786 20.7835C643.021 18.6688 646.794 17.6115 651.106 17.6115C653.594 17.6115 656.051 18.0261 658.476 18.8554C660.902 19.6847 663.11 21.0323 665.1 22.8981C667.09 24.7433 668.676 27.1897 669.858 30.2373C671.04 33.2849 671.631 37.0374 671.631 41.4948V44.6046H634.811V38.2606H664.167C664.167 35.5654 663.628 33.1605 662.55 31.0458C661.493 28.9312 659.979 27.2622 658.01 26.039C656.061 24.8159 653.76 24.2043 651.106 24.2043C648.183 24.2043 645.654 24.9299 643.518 26.3811C641.404 27.8116 639.776 29.6775 638.636 31.9788C637.496 34.28 636.925 36.7471 636.925 39.3801V43.6094C636.925 47.2168 637.547 50.2748 638.791 52.7833C640.056 55.2712 641.808 57.1682 644.047 58.4743C646.286 59.7597 648.888 60.4024 651.852 60.4024C653.781 60.4024 655.522 60.1328 657.077 59.5938C658.653 59.034 660.01 58.2048 661.151 57.106C662.291 55.9864 663.172 54.5974 663.794 52.9388L670.884 54.9291C670.138 57.334 668.884 59.4487 667.122 61.2731C665.359 63.0768 663.183 64.4866 660.591 65.5024C658 66.4976 655.087 66.9951 651.852 66.9951Z" fill="url(#paint12_linear_36_57)"/>
<path d="M682.795 66V18.2334H689.885V25.4482H690.383C691.254 23.0847 692.829 21.167 695.11 19.695C697.39 18.2231 699.961 17.4871 702.822 17.4871C703.361 17.4871 704.035 17.4975 704.844 17.5182C705.652 17.5389 706.264 17.57 706.678 17.6115V25.075C706.429 25.0128 705.859 24.9195 704.968 24.7951C704.097 24.65 703.175 24.5774 702.2 24.5774C699.878 24.5774 697.805 25.0646 695.981 26.039C694.177 26.9927 692.746 28.3196 691.689 30.0196C690.652 31.6989 690.134 33.6166 690.134 35.7727V66H682.795Z" fill="url(#paint13_linear_36_57)"/>
<path d="M749.213 28.9312L742.62 30.797C742.205 29.6982 741.594 28.6305 740.785 27.5939C739.997 26.5366 738.919 25.6659 737.551 24.9817C736.183 24.2976 734.431 23.9555 732.295 23.9555C729.372 23.9555 726.936 24.6293 724.987 25.9768C723.059 27.3037 722.095 28.9934 722.095 31.0458C722.095 32.8702 722.759 34.3111 724.085 35.3685C725.412 36.4258 727.485 37.3069 730.305 38.0118L737.395 39.7533C741.666 40.7899 744.849 42.3759 746.942 44.5113C749.036 46.6259 750.083 49.3522 750.083 52.69C750.083 55.4267 749.296 57.8731 747.72 60.0292C746.165 62.1853 743.988 63.8853 741.189 65.1293C738.39 66.3732 735.136 66.9951 731.424 66.9951C726.552 66.9951 722.52 65.9378 719.327 63.8231C716.135 61.7085 714.113 58.6194 713.263 54.5559L720.229 52.8144C720.893 55.3852 722.147 57.3133 723.992 58.5987C725.858 59.8841 728.294 60.5267 731.3 60.5267C734.721 60.5267 737.437 59.8011 739.448 58.3499C741.48 56.8779 742.495 55.1157 742.495 53.0632C742.495 51.4047 741.915 50.0156 740.754 48.8961C739.593 47.7558 737.81 46.9058 735.405 46.3461L727.444 44.4802C723.07 43.4436 719.856 41.8368 717.804 39.66C715.772 37.4624 714.756 34.7154 714.756 31.419C714.756 28.7238 715.513 26.3397 717.026 24.2665C718.56 22.1933 720.644 20.5658 723.277 19.3841C725.931 18.2023 728.937 17.6115 732.295 17.6115C737.022 17.6115 740.733 18.6481 743.428 20.7213C746.144 22.7945 748.072 25.5311 749.213 28.9312Z" fill="url(#paint14_linear_36_57)"/>
<defs>
<linearGradient id="paint0_linear_36_57" x1="174.72" y1="113.644" x2="235.756" y2="-109.442" gradientUnits="userSpaceOnUse">
<stop stop-color="#EEF1F0"/>
<stop offset="1" stop-color="#71757E"/>
</linearGradient>
<linearGradient id="paint1_linear_36_57" x1="174.72" y1="113.644" x2="235.756" y2="-109.442" gradientUnits="userSpaceOnUse">
<stop stop-color="#EEF1F0"/>
<stop offset="1" stop-color="#71757E"/>
</linearGradient>
<linearGradient id="paint2_linear_36_57" x1="174.72" y1="113.644" x2="235.756" y2="-109.442" gradientUnits="userSpaceOnUse">
<stop stop-color="#EEF1F0"/>
<stop offset="1" stop-color="#71757E"/>
</linearGradient>
<linearGradient id="paint3_linear_36_57" x1="174.72" y1="113.644" x2="235.756" y2="-109.442" gradientUnits="userSpaceOnUse">
<stop stop-color="#EEF1F0"/>
<stop offset="1" stop-color="#71757E"/>
</linearGradient>
<linearGradient id="paint4_linear_36_57" x1="174.72" y1="113.644" x2="235.756" y2="-109.442" gradientUnits="userSpaceOnUse">
<stop stop-color="#EEF1F0"/>
<stop offset="1" stop-color="#71757E"/>
</linearGradient>
<linearGradient id="paint5_linear_36_57" x1="174.72" y1="113.644" x2="235.756" y2="-109.442" gradientUnits="userSpaceOnUse">
<stop stop-color="#EEF1F0"/>
<stop offset="1" stop-color="#71757E"/>
</linearGradient>
<linearGradient id="paint6_linear_36_57" x1="174.72" y1="113.644" x2="235.756" y2="-109.442" gradientUnits="userSpaceOnUse">
<stop stop-color="#EEF1F0"/>
<stop offset="1" stop-color="#71757E"/>
</linearGradient>
<linearGradient id="paint7_linear_36_57" x1="174.72" y1="113.644" x2="235.756" y2="-109.442" gradientUnits="userSpaceOnUse">
<stop stop-color="#EEF1F0"/>
<stop offset="1" stop-color="#71757E"/>
</linearGradient>
<linearGradient id="paint8_linear_36_57" x1="174.72" y1="113.644" x2="235.756" y2="-109.442" gradientUnits="userSpaceOnUse">
<stop stop-color="#EEF1F0"/>
<stop offset="1" stop-color="#71757E"/>
</linearGradient>
<linearGradient id="paint9_linear_36_57" x1="174.72" y1="113.644" x2="235.756" y2="-109.442" gradientUnits="userSpaceOnUse">
<stop stop-color="#EEF1F0"/>
<stop offset="1" stop-color="#71757E"/>
</linearGradient>
<linearGradient id="paint10_linear_36_57" x1="174.72" y1="113.644" x2="235.756" y2="-109.442" gradientUnits="userSpaceOnUse">
<stop stop-color="#EEF1F0"/>
<stop offset="1" stop-color="#71757E"/>
</linearGradient>
<linearGradient id="paint11_linear_36_57" x1="174.72" y1="113.644" x2="235.756" y2="-109.442" gradientUnits="userSpaceOnUse">
<stop stop-color="#EEF1F0"/>
<stop offset="1" stop-color="#71757E"/>
</linearGradient>
<linearGradient id="paint12_linear_36_57" x1="174.72" y1="113.644" x2="235.756" y2="-109.442" gradientUnits="userSpaceOnUse">
<stop stop-color="#EEF1F0"/>
<stop offset="1" stop-color="#71757E"/>
</linearGradient>
<linearGradient id="paint13_linear_36_57" x1="174.72" y1="113.644" x2="235.756" y2="-109.442" gradientUnits="userSpaceOnUse">
<stop stop-color="#EEF1F0"/>
<stop offset="1" stop-color="#71757E"/>
</linearGradient>
<linearGradient id="paint14_linear_36_57" x1="174.72" y1="113.644" x2="235.756" y2="-109.442" gradientUnits="userSpaceOnUse">
<stop stop-color="#EEF1F0"/>
<stop offset="1" stop-color="#71757E"/>
</linearGradient>
</defs>
</svg>
