<svg width="29" height="35" viewBox="0 0 29 35" fill="none" xmlns="http://www.w3.org/2000/svg">
<path fill-rule="evenodd" clip-rule="evenodd" d="M5.58318 0.781255L5.5098 0.781253C4.52174 0.781197 3.6704 0.781149 2.98866 0.872808C2.25803 0.971038 1.55768 1.19256 0.989621 1.76062C0.42156 2.32868 0.200042 3.02903 0.101812 3.75966C0.0101534 4.4414 0.0102012 5.29274 0.0102566 6.2808L0.0102594 6.35418L0.0102566 28.7192C0.0102012 29.7073 0.0101534 30.5586 0.101812 31.2404C0.200042 31.971 0.42156 32.6713 0.989621 33.2394C1.55768 33.8075 2.25803 34.029 2.98866 34.1272C3.67042 34.2189 4.52177 34.2188 5.50986 34.2188H5.65649C6.64458 34.2188 7.49594 34.2189 8.17769 34.1272C8.90832 34.029 9.60867 33.8075 10.1767 33.2394C10.7448 32.6713 10.9663 31.971 11.0645 31.2404C11.1562 30.5586 11.1562 29.7073 11.1561 28.7192V6.2808C11.1562 5.29274 11.1562 4.4414 11.0645 3.75966C10.9663 3.02903 10.7448 2.32868 10.1767 1.76062C9.60867 1.19256 8.90832 0.971038 8.17769 0.872808C7.49595 0.781149 6.64462 0.781197 5.65655 0.781253L5.58318 0.781255ZM2.56588 3.33688C2.65073 3.25203 2.80225 3.14709 3.28569 3.0821C3.80119 3.01279 4.50083 3.01042 5.58318 3.01042C6.66553 3.01042 7.36516 3.01279 7.88066 3.0821C8.3641 3.14709 8.51563 3.25203 8.60047 3.33688C8.68532 3.42172 8.79026 3.57325 8.85525 4.05669C8.92456 4.57219 8.92693 5.27182 8.92693 6.35417V28.6458C8.92693 29.7282 8.92456 30.4278 8.85525 30.9433C8.79026 31.4268 8.68532 31.5783 8.60047 31.6631C8.51563 31.748 8.3641 31.8529 7.88066 31.9179C7.36516 31.9872 6.66553 31.9896 5.58318 31.9896C4.50083 31.9896 3.80119 31.9872 3.28569 31.9179C2.80225 31.8529 2.65073 31.748 2.56588 31.6631C2.48103 31.5783 2.3761 31.4268 2.3111 30.9433C2.24179 30.4278 2.23943 29.7282 2.23943 28.6458V6.35418C2.23943 5.27183 2.24179 4.57219 2.3111 4.05669C2.3761 3.57325 2.48103 3.42172 2.56588 3.33688ZM23.4165 0.781255L23.3431 0.781253C22.3551 0.781197 21.5037 0.781149 20.822 0.872808C20.0914 0.971038 19.391 1.19256 18.823 1.76062C18.2549 2.32868 18.0334 3.02903 17.9351 3.75966C17.8435 4.4414 17.8435 5.29274 17.8436 6.2808L17.8436 6.35418L17.8436 28.7192C17.8435 29.7073 17.8435 30.5586 17.9351 31.2404C18.0334 31.971 18.2549 32.6713 18.823 33.2394C19.391 33.8075 20.0914 34.029 20.822 34.1272C21.5038 34.2189 22.3551 34.2188 23.3432 34.2188H23.4898C24.4779 34.2188 25.3293 34.2189 26.011 34.1272C26.7417 34.029 27.442 33.8075 28.0101 33.2394C28.5781 32.6713 28.7996 31.971 28.8979 31.2404C28.9895 30.5586 28.9895 29.7073 28.9894 28.7193V28.7192V6.2808V6.28074C28.9895 5.2927 28.9895 4.44139 28.8979 3.75966C28.7996 3.02903 28.5781 2.32868 28.0101 1.76062C27.442 1.19256 26.7417 0.971038 26.011 0.872808C25.3293 0.781149 24.478 0.781197 23.4899 0.781253L23.4165 0.781255ZM20.3992 3.33688C20.4841 3.25203 20.6356 3.14709 21.119 3.0821C21.6345 3.01279 22.3342 3.01042 23.4165 3.01042C24.4989 3.01042 25.1985 3.01279 25.714 3.0821C26.1974 3.14709 26.349 3.25203 26.4338 3.33688C26.5187 3.42172 26.6236 3.57325 26.6886 4.05669C26.7579 4.57219 26.7603 5.27182 26.7603 6.35417V28.6458C26.7603 29.7282 26.7579 30.4278 26.6886 30.9433C26.6236 31.4268 26.5187 31.5783 26.4338 31.6631C26.349 31.748 26.1974 31.8529 25.714 31.9179C25.1985 31.9872 24.4989 31.9896 23.4165 31.9896C22.3342 31.9896 21.6345 31.9872 21.119 31.9179C20.6356 31.8529 20.4841 31.748 20.3992 31.6631C20.3144 31.5783 20.2094 31.4268 20.1444 30.9433C20.0751 30.4278 20.0728 29.7282 20.0728 28.6458V6.35418C20.0728 5.27183 20.0751 4.57219 20.1444 4.05669C20.2094 3.57325 20.3144 3.42172 20.3992 3.33688Z" fill="white"/>
</svg>
