<svg width="25" height="45" viewBox="0 -3 35 45" fill="none" xmlns="http://www.w3.org/2000/svg">
<path fill-rule="evenodd" clip-rule="evenodd" d="M16.2171 0.846518C20.1185 0.555811 24.003 1.59872 27.2342 3.80438C30.4654 6.01005 32.8517 9.2477 34.0022 12.9869C35.1527 16.7262 34.9992 20.7453 33.5668 24.3859C32.1344 28.0265 29.5081 31.0727 26.118 33.0254C22.92 34.8676 19.2213 35.6336 15.5654 35.2213L22.9175 42.5734L21.2897 44.2012L12.0814 34.9929L11.2675 34.179L12.0814 33.3651L21.2897 24.1568L22.9175 25.7846L15.774 32.9281C18.9585 33.2979 22.183 32.6354 24.969 31.0306C27.907 29.3382 30.1831 26.6982 31.4246 23.543C32.666 20.3879 32.799 16.9046 31.8019 13.6639C30.8048 10.4233 28.7366 7.6173 25.9363 5.70572C23.1359 3.79414 19.7694 2.89029 16.3881 3.14224C13.0069 3.39418 9.81148 4.78699 7.32534 7.09248C4.8392 9.39798 3.20975 12.4795 2.70393 15.8321C2.19812 19.1848 2.84592 22.6098 4.54122 25.5462C4.85907 26.0967 4.67045 26.8007 4.11991 27.1185C3.56938 27.4364 2.86541 27.2478 2.54756 26.6972C0.591443 23.3091 -0.156024 19.3571 0.42761 15.4887C1.01125 11.6202 2.89138 8.06468 5.76 5.40449C8.62862 2.74431 12.3157 1.13722 16.2171 0.846518Z" fill="white"/>
</svg>
