<svg width="19" height="18" viewBox="0 0 19 18" fill="none" xmlns="http://www.w3.org/2000/svg">
<path fill-rule="evenodd" clip-rule="evenodd" d="M9 0C10.0875 0 10.8113 0.27331 11.2773 0.583975C11.508 0.73777 11.6684 0.896016 11.7747 1.02366C11.8278 1.08733 11.8672 1.14312 11.8952 1.18665C11.9092 1.20842 11.9203 1.22714 11.9289 1.24226C11.9332 1.24983 11.9368 1.2565 11.9399 1.26221L11.944 1.27004L11.9457 1.27341L11.9465 1.27495L11.9469 1.27568C11.947 1.27604 11.9472 1.27639 11.5 1.5L11.9472 1.27639C12.0707 1.52338 11.9706 1.82372 11.7236 1.94721C11.4801 2.06896 11.1848 1.97339 11.0581 1.73402L11.054 1.72741C11.0468 1.71625 11.0316 1.69392 11.0065 1.66384C10.9566 1.60398 10.867 1.51223 10.7226 1.41603C10.4386 1.22669 9.91251 1 9 1C8.08751 1 7.56139 1.22674 7.27739 1.41612C7.13309 1.51234 7.04341 1.60412 6.99352 1.664C6.96845 1.69409 6.95318 1.71643 6.94601 1.7276L6.94188 1.73422C6.81526 1.9736 6.51993 2.0692 6.27643 1.94748C6.02943 1.82401 5.92929 1.52368 6.05276 1.27668L6.5 1.50024C6.05276 1.27668 6.05294 1.27632 6.05312 1.27597L6.05349 1.27523L6.05427 1.27369L6.05599 1.27033L6.0601 1.26249C6.06313 1.25678 6.06678 1.25011 6.07106 1.24255C6.07963 1.22742 6.09078 1.2087 6.10477 1.18693C6.13275 1.14339 6.17217 1.08759 6.22522 1.02391C6.33159 0.896241 6.49191 0.737959 6.7226 0.584127C7.1886 0.273383 7.91248 0 9 0ZM1.59247 5.03957C1.20948 5.0006 0.712637 5 0 5V4L0.0269712 4L0.0811069 4H17.9189L17.973 4L18 4C18.2761 4 18.5 4.22386 18.5 4.5C18.5 4.77614 18.2761 5 18 5C17.2874 5 16.7905 5.0006 16.4075 5.03957C16.0329 5.07768 15.823 5.14831 15.6666 5.2528C15.5029 5.36223 15.3622 5.50286 15.2528 5.66665C15.1483 5.82302 15.0777 6.03289 15.0396 6.40753C15.0006 6.79052 15 7.28736 15 8V13.5366C15 14.4483 15 15.1832 14.9223 15.7612C14.8416 16.3612 14.669 16.8665 14.2678 17.2678C13.8665 17.669 13.3612 17.8416 12.7612 17.9223C12.1832 18 11.4483 18 10.5366 18H10.5366H10.5366H7.46343H7.46341H7.46338C6.55167 18 5.8168 18 5.23883 17.9223C4.63876 17.8416 4.13351 17.669 3.73223 17.2678C3.33096 16.8665 3.15836 16.3612 3.07768 15.7612C2.99997 15.1832 2.99999 14.4483 3 13.5366L3 8C3 7.28736 2.9994 6.79052 2.96043 6.40753C2.92232 6.03289 2.85169 5.82302 2.7472 5.66665C2.63777 5.50286 2.49714 5.36223 2.33336 5.2528C2.17698 5.14831 1.96711 5.07768 1.59247 5.03957ZM14.5 5H3.5C3.5272 5.03626 3.55343 5.0733 3.57867 5.11107C3.81125 5.45915 3.90915 5.85262 3.9553 6.30632C4.00001 6.74587 4.00001 7.29369 4 7.97302V13.5C4 14.4569 4.00106 15.1244 4.06876 15.6279C4.13453 16.1171 4.25483 16.3762 4.43934 16.5607C4.62385 16.7452 4.8829 16.8655 5.37208 16.9312C5.87565 16.9989 6.54306 17 7.5 17H10.5C11.4569 17 12.1244 16.9989 12.6279 16.9312C13.1171 16.8655 13.3762 16.7452 13.5607 16.5607C13.7452 16.3762 13.8655 16.1171 13.9312 15.6279C13.9989 15.1244 14 14.4569 14 13.5V7.97302V7.973C14 7.29368 14 6.74586 14.0447 6.30632C14.0909 5.85262 14.1888 5.45915 14.4213 5.11107C14.4466 5.0733 14.4728 5.03626 14.5 5ZM6 12.5C6 12.7761 6.22386 13 6.5 13C6.77614 13 7 12.7761 7 12.5V9.5C7 9.22386 6.77614 9 6.5 9C6.22386 9 6 9.22386 6 9.5V12.5ZM11 12.5C11 12.7761 11.2239 13 11.5 13C11.7761 13 12 12.7761 12 12.5V9.5C12 9.22386 11.7761 9 11.5 9C11.2239 9 11 9.22386 11 9.5V12.5Z" fill="white"/>
</svg>
